<svg id="Capa_1" enable-background="new 0 0 512 512" height="512" viewBox="0 0 512 512" width="512" xmlns="http://www.w3.org/2000/svg"><path d="m391 245c0-16.542-13.458-30-30-30h-30c-16.542 0-30 13.458-30 30v105h90z"/><path d="m61 75c0-24.81 20.19-45 45-45h30c20.274 0 37.456 13.484 43.064 31.952-33.222 7.702-58.064 37.518-58.064 73.048v15h150v-15c0-36.668-26.457-67.253-61.28-73.72-6.467-34.826-37.056-61.28-73.72-61.28h-30c-41.35 0-75 33.64-75 75v140h30z"/><path d="m421 380h-150v-45h-240v45c0 39.251 21.65 73.533 53.632 91.548l-19.238 19.238 21.212 21.214 28.995-28.995c6.601 1.304 13.421 1.995 20.399 1.995h240c6.978 0 13.798-.691 20.399-1.995l28.995 28.995 21.213-21.213-19.238-19.238c31.981-18.016 53.631-52.298 53.631-91.549v-45h-60z"/><path d="m482 245h-61v60h61c16.54 0 30-13.46 30-30s-13.46-30-30-30z"/><path d="m271 245h-241c-16.54 0-30 13.46-30 30s13.46 30 30 30h241z"/></svg>