<svg width="124" height="35" viewBox="0 0 124 35" fill="none" xmlns="http://www.w3.org/2000/svg">
<path d="M17.4889 27.0438L8.97799 16.4241L16.6506 7.93858H12.5856L3.43952 17.9739V7.96399H0.0605469V27.0692H3.43952V22.5977L6.69147 18.9647L13.2716 27.0438H17.4889ZM20.0295 27.0438H33.4438V24.0205H23.3831V7.96399H20.0041V27.0438H20.0295ZM52.3965 18.5582V7.96399H49.0176V18.5836C49.0176 21.988 46.9597 24.3507 43.9364 24.3507C40.8877 24.3507 38.8552 21.988 38.8552 18.5836V7.96399H35.4763V18.5836C35.4763 24.0713 38.8806 27.4757 43.9364 27.4757C48.9922 27.4757 52.3965 24.0459 52.3965 18.5582ZM70.5617 17.415C70.5617 21.0988 67.64 23.9188 63.8292 23.9188H60.0437V11.0635H63.8292C67.64 11.0635 70.5617 13.8327 70.5617 17.415ZM74.0169 17.415C74.0169 11.9781 69.6979 7.96399 63.8292 7.96399H56.6647V27.0692H63.8292C69.6979 27.0438 74.0169 22.9534 74.0169 17.415ZM77.7516 27.0438H81.1305V7.96399H77.7516V27.0438ZM120.916 17.3387C120.916 19.0663 120.586 20.7177 120.027 22.2421C119.874 22.3691 118.706 23.3345 116.673 24.0459C114.056 24.9605 111.236 25.1129 108.289 24.4778V18.6598C112.532 17.9485 115.784 14.2646 115.809 9.86942V6.59208C119.011 9.20887 120.916 13.1468 120.916 17.3387ZM111.821 27.7297C113.853 27.7297 115.606 27.3994 117.054 26.9421C114.488 29.6352 110.83 31.3119 106.816 31.3119C102.598 31.3119 98.8384 29.4827 96.247 26.5865C96.6281 26.4594 97.1616 26.307 97.8476 26.2054C99.4989 25.9513 102.344 25.9005 106.663 27.0438C108.518 27.5265 110.246 27.7297 111.821 27.7297ZM105.291 23.7664C99.2957 22.5469 95.9675 23.4869 94.494 24.1729C93.3507 22.1404 92.6902 19.8285 92.6902 17.3387C92.6902 13.1468 94.5956 9.23428 97.7713 6.61748V9.84402C97.7459 12.2068 98.686 14.4425 100.337 16.1193C101.684 17.4912 103.411 18.355 105.291 18.6598V23.7664ZM123.914 17.3387C123.914 10.0727 119.29 3.87365 112.812 1.4601V9.81861C112.786 12.5878 110.855 14.8998 108.264 15.5857V0.469272C107.273 0.393055 106.257 0.393055 105.266 0.469272V15.6111C104.199 15.3571 103.234 14.7982 102.446 14.0106C101.328 12.8927 100.718 11.4192 100.744 9.84402V1.48551C94.2653 3.89906 89.6669 10.0981 89.6669 17.3387C89.6669 26.6881 97.3394 34.2844 106.79 34.2844C116.241 34.2844 123.914 26.7135 123.914 17.3387Z" fill="white"/>
</svg>
