<svg xmlns="http://www.w3.org/2000/svg" viewBox="0 0 512 512" fill="#1e40af">
  <path d="M96 77.3c0-7.3 5.9-13.3 13.3-13.3c3.5 0 6.9 1.4 9.4 3.9l14.9 14.9C180 119.4 224.5 140 272 140s92-20.6 138.4-57.2l14.9-14.9c2.5-2.5 5.9-3.9 9.4-3.9c7.3 0 13.3 5.9 13.3 13.3s-5.9 13.3-13.3 13.3c-1.8 0-3.5-.7-4.7-1.9L418.6 99.1C378.1 130.7 326.4 148 272 148s-106.1-17.3-146.6-48.9L113.9 88.7c-1.2 1.2-2.9 1.9-4.7 1.9c-7.3 0-13.3-5.9-13.3-13.3zM448 304c0-8.8-7.2-16-16-16s-16 7.2-16 16v16c0 8.8 7.2 16 16 16s16-7.2 16-16V304zM64 304c0-8.8-7.2-16-16-16s-16 7.2-16 16v16c0 8.8 7.2 16 16 16s16-7.2 16-16V304zM272 180c-44.2 0-80 35.8-80 80v8c0 17.7 14.3 32 32 32H288c17.7 0 32-14.3 32-32v-8c0-44.2-35.8-80-80-80zM480 416c0 35.3-28.7 64-64 64H96c-35.3 0-64-28.7-64-64c0-23.7 12.9-44.4 32-55.4V344c0-48.6 39.4-88 88-88h224c48.6 0 88 39.4 88 88v16.6c19.1 11 32 31.7 32 55.4zM64 344v16.6c0 5.4-4.4 9.8-9.8 9.8c-16.8 0-30.4 13.6-30.4 30.4s13.6 30.4 30.4 30.4H457.8c16.8 0 30.4-13.6 30.4-30.4s-13.6-30.4-30.4-30.4c-5.4 0-9.8-4.4-9.8-9.8V344c0-30.9-25.1-56-56-56H120c-30.9 0-56 25.1-56 56z"/>
</svg>
