<?xml version="1.0" encoding="utf-8"?>
<!-- Generator: Adobe Illustrator 24.0.1, SVG Export Plug-In . SVG Version: 6.00 Build 0)  -->
<svg version="1.1" id="Livello_1" xmlns="http://www.w3.org/2000/svg" xmlns:xlink="http://www.w3.org/1999/xlink" x="0px" y="0px"
	 viewBox="0 0 137.3 52.6" style="enable-background:new 0 0 137.3 52.6;" xml:space="preserve">
<style type="text/css">
	.st0{clip-path:url(#SVGID_2_);fill:#FFFFFF;}
</style>
<g>
	<defs>
		<rect id="SVGID_1_" x="1.6" y="1.6" width="133.6" height="49.1"/>
	</defs>
	<clipPath id="SVGID_2_">
		<use xlink:href="#SVGID_1_"  style="overflow:visible;"/>
	</clipPath>
	<path class="st0" d="M81.7,17.5c-0.8-2.2-2.1-4.2-3.9-5.9c-3.2-3.2-7-4.8-11.5-4.8c-4.5,0-8.3,1.6-11.6,4.8
		c-3.2,3.2-4.8,7-4.8,11.5v6.8c0,4.5,1.6,8.4,4.8,11.6c3.3,3.2,7.2,4.7,11.6,4.7c4.5,0,8.3-1.6,11.5-4.8c1.9-1.9,3.3-4.1,4-6.4h5.3
		c-0.9,3.7-2.8,7.1-5.8,10c-4.2,3.8-9.3,5.7-15.1,5.7c-5.9,0-10.9-1.9-15.1-5.7c-4.2-4.2-6.3-9.2-6.3-15.2V23
		c0-5.9,2.1-10.9,6.3-15.1c4.2-4.2,9.3-6.4,15.1-6.4c5.9,0,11,2.1,15.1,6.3c2.9,2.9,4.8,6.2,5.7,10H82v4.6H57.6v-4.9H81.7z"/>
	<path class="st0" d="M38.5,17.8c-0.8-2.3-2.1-4.4-4-6.2c-3.2-3.2-7-4.8-11.5-4.8c-4.5,0-8.3,1.6-11.6,4.8c-3.2,3.2-4.8,7-4.8,11.5
		v6.8c0,4.5,1.6,8.4,4.8,11.6c3.3,3.2,7.2,4.7,11.6,4.7c4.5,0,8.3-1.6,11.5-4.8c1.9-1.9,3.3-4.1,4-6.5h5.3C43,38.7,41.1,42,38.1,45
		c-4.2,3.8-9.3,5.7-15.1,5.7c-5.9,0-10.9-1.9-15.2-5.7c-4.2-4.2-6.3-9.2-6.3-15.2V23c0-5.9,2.1-10.9,6.3-15.1
		c4.2-4.2,9.3-6.4,15.2-6.4C29,1.6,34,3.7,38.2,7.8c2.9,2.9,4.8,6.2,5.7,9.9H38.5z"/>
	<path class="st0" d="M125.1,23c0-4.5-1.6-8.3-4.8-11.5c-3.2-3.2-7-4.8-11.5-4.8c-4.5,0-8.3,1.6-11.5,4.8c-1.9,1.9-3.2,3.9-4,6.2H88
		c0.9-3.7,2.8-7,5.7-9.8c4.2-4.2,9.3-6.4,15.1-6.4c5.9,0,11,2.1,15.2,6.3c4.2,4.2,6.3,9.2,6.3,15.1v18.2c0,2.8,1.4,4.1,4.1,4.1h1
		v5.1h-1.1c-2.3,0-4.3-0.7-5.9-2.1c-1.6-1.4-2.6-3.2-3-5.3c-2,2.5-4.4,4.4-7.3,5.7c-2.9,1.3-6,2-9.2,2c-5.9,0-10.9-1.9-15.1-5.7
		c-2.9-2.9-4.8-6.3-5.7-10.1h5.2c0.8,2.4,2.1,4.6,4.1,6.5c3.3,3.2,7.2,4.7,11.5,4.7c4.5,0,8.3-1.6,11.5-4.8
		c3.2-3.2,4.8-7.1,4.8-11.5V23z"/>
</g>
</svg>
