<svg id="Layer_1" xmlns="http://www.w3.org/2000/svg" viewBox="0 0 169.5 36.51"><defs><style>.cls-1{fill:#fff}</style></defs><g id="Group_843"><g id="Group_844"><g id="Group_822"><path id="Path_2176" class="cls-1" d="M169.09 3.75h-.6c-.23 0-.42.19-.42.42v4.48h-9.09V4.17c0-.23-.19-.42-.42-.42h-.6c-.23 0-.42.19-.42.42v10.26c0 .23.19.42.42.42h.6c.23 0 .42-.19.42-.42V9.87h9.09v4.56c0 .23.19.42.42.42h.6c.23 0 .42-.19.42-.42V4.17a.42.42 0 00-.41-.42"/></g><g id="Group_823"><path id="Path_2177" class="cls-1" d="M72.44 13.63h-7.73V4.16c0-.23-.19-.42-.42-.42h-.6c-.23 0-.42.19-.42.42v10.26c0 .23.19.42.42.42h8.75c.23 0 .42-.19.42-.42v-.38a.43.43 0 00-.42-.42"/></g><g id="Group_824"><path id="Path_2178" class="cls-1" d="M77.18 14.42c0 .23-.19.42-.42.42h-.6c-.23 0-.42-.19-.42-.42V4.17c0-.23.19-.42.42-.42h.6c.23 0 .42.19.42.42v10.26z"/></g><g id="Group_825"><path id="Path_2179" class="cls-1" d="M59.56 26.27c.23 0 .41.19.42.42v.38c0 .23-.19.41-.42.42h-9.74c-.23 0-.42-.19-.42-.42v-.39c0-.23.19-.41.42-.41h9.74z"/></g><g id="Group_826"><path id="Path_2180" class="cls-1" d="M53.97 22.45c0-.23.19-.41.41-.42h.6c.23 0 .41.19.41.41v9.11c0 .23-.19.41-.41.41h-.6c-.23 0-.41-.19-.41-.41v-9.11z"/></g><g id="Group_827"><path id="Path_2181" class="cls-1" d="M59.58 4.97c.23 0 .42-.19.42-.42v-.38c0-.23-.19-.42-.42-.42h-9.86c-.11.02-.2.09-.26.18-.01.02-.03.05-.04.07-.02.05-.03.11-.03.16v10.26c0 .23.19.42.42.42h9.78c.23 0 .42-.19.42-.42v-.38c0-.23-.19-.42-.42-.42h-8.76V9.81h7.67c.23 0 .41-.19.41-.41v-.38c0-.23-.19-.42-.42-.42h-7.66V4.96h8.76z"/></g><g id="Group_828"><path id="Path_2182" class="cls-1" d="M105.24 4.97c.23 0 .42-.19.42-.42v-.38c0-.23-.19-.42-.42-.42h-9.86c-.11.02-.2.09-.26.18-.02.02-.03.05-.04.07-.02.05-.03.11-.03.16v10.26c0 .23.19.42.42.42h9.78c.23 0 .42-.19.42-.42v-.38c0-.23-.19-.42-.42-.42h-8.76V9.81h7.67c.23 0 .41-.19.41-.41v-.38c0-.23-.19-.42-.42-.42h-7.67V4.96h8.76z"/></g><g id="Group_829"><path id="Path_2183" class="cls-1" d="M92.24 3.75H80.55c-.23 0-.42.19-.42.42v.38c0 .23.19.42.42.42h5.13v9.46c0 .23.19.42.42.42h.6c.23 0 .42-.19.42-.42V4.97h5.13c.23 0 .42-.19.42-.42v-.38c0-.23-.19-.42-.42-.42"/></g><g id="Group_830"><path id="Path_2184" class="cls-1" d="M154.63 3.74h-11.69c-.23 0-.42.19-.42.42v.38c0 .23.19.42.42.42h5.13v9.47c0 .23.19.42.42.42h.6c.23 0 .42-.19.42-.42V4.95h5.13c.23 0 .42-.18.42-.41v-.39c0-.23-.19-.42-.42-.41"/></g><g id="Group_831"><path id="Path_2185" class="cls-1" d="M133.45 10.92l3.12-5.42 3.13 5.42h-6.25zm9.55 3.11l-5.83-10.08a.403.403 0 00-.29-.2h-.55s-.08.01-.09.01c-.12.02-.23.09-.29.2l-5.81 10.07c-.12.2-.05.45.15.57l.41.24c.2.11.45.05.57-.15l1.47-2.55h7.65l1.47 2.55c.12.2.37.27.57.15l.41-.24c.2-.11.27-.37.15-.56"/></g><g id="Group_832"><path id="Path_2186" class="cls-1" d="M123.9 13.63h-5.93V9.82h5.93a2.06 2.06 0 012.3 1.79v.09c0 1.49-1.09 1.93-2.31 1.93m-5.92-8.67h5.48a1.97 1.97 0 012.2 1.71v.09c0 1.25-1.06 1.84-2.21 1.84h-5.48V4.96zm7.31 4.12a2.664 2.664 0 001.83-2.51c0-2.02-1.91-2.82-3.47-2.82h-6.69c-.23 0-.42.19-.42.42v10.26c0 .23.19.42.42.42h7.22c1.61 0 3.58-.96 3.58-2.98a2.907 2.907 0 00-2.48-2.77"/></g><g id="Group_833"><path id="Path_2187" class="cls-1" d="M74.46 31.44l-6.55-5.16 6.1-3.84c.19-.12.25-.38.13-.57l-.2-.32a.418.418 0 00-.57-.13l-8.65 5.45v-4.99a.43.43 0 00-.42-.42h-.6a.43.43 0 00-.42.42v10.26c0 .23.19.41.42.42h.6c.23 0 .41-.19.42-.42v-3.83l1.91-1.2 6.95 5.47c.18.14.44.11.58-.07l.38-.48c.14-.18.11-.44-.07-.59"/></g><g id="Group_834"><path id="Path_2188" class="cls-1" d="M123.6 21.46h-.6a.43.43 0 00-.42.42v4.48h-9.09v-4.48c0-.23-.19-.42-.42-.42h-.6a.43.43 0 00-.42.42v10.26c0 .23.19.41.42.41h.6c.23 0 .42-.19.42-.41v-4.57h9.09v4.57c0 .23.19.41.42.41h.6c.23 0 .41-.19.42-.41V21.88a.42.42 0 00-.41-.42"/></g><g id="Group_835"><path id="Path_2189" class="cls-1" d="M79.81 32.13c0 .23-.19.42-.41.42h-.6c-.23 0-.42-.19-.41-.42V21.87c0-.23.19-.41.41-.42h.6c.23 0 .41.19.41.42v10.26z"/></g><g id="Group_836"><path id="Path_2190" class="cls-1" d="M138.64 22.67c.23 0 .41-.19.42-.42v-.38c0-.23-.19-.42-.42-.42h-9.86c-.11.02-.2.09-.26.18-.01.02-.03.05-.04.07-.02.05-.03.11-.03.16v10.26c0 .23.19.42.42.42h9.78c.23 0 .42-.19.42-.42v-.38c0-.23-.19-.42-.42-.42h-8.76v-3.81h7.67c.23 0 .41-.18.41-.41v-.39c0-.23-.19-.42-.42-.42h-7.66v-3.64h8.76z"/></g><g id="Group_837"><path id="Path_2191" class="cls-1" d="M94.74 21.46H83.05a.43.43 0 00-.42.42v.38c0 .23.19.41.42.42h5.13v9.46c0 .23.19.41.42.41h.6c.23 0 .41-.19.42-.41v-9.46h5.13c.23 0 .42-.19.42-.42v-.38a.42.42 0 00-.41-.42"/></g><g id="Group_838"><path id="Path_2192" class="cls-1" d="M153.49 21.46h-.6c-.23 0-.42.19-.42.42v8.41l-8.93-8.71a.4.4 0 00-.29-.12h-.37c-.23 0-.42.19-.42.42v10.26c0 .23.19.42.42.42h.6c.23 0 .42-.19.42-.42v-8.37l8.89 8.67c.09.08.21.13.33.12.01 0-.01 0 0 0h.36c.23 0 .42-.19.42-.42V21.88c0-.23-.18-.41-.41-.41"/></g><g id="Group_839"><path id="Path_2193" class="cls-1" d="M108.72 29.78c.12-.21.16-.31.16-.31a.34.34 0 00-.16-.47c-.02-.01-.05-.02-.07-.03l-.65-.19c-.21-.07-.44 0-.56.19-.09.17-.12.23-.16.3a4.955 4.955 0 01-4.53 2.29c-2.82 0-5.1-1.64-5.1-4.55s2.28-4.55 5.1-4.55c1.83-.11 3.58.78 4.55 2.34.03.06.07.13.13.24.12.18.35.26.56.18l.66-.17c.22-.07.33-.25.26-.41s-.15-.31-.15-.31c-1.07-2-3.35-3.08-6.01-3.08-3.68 0-6.65 2.08-6.65 5.77s2.98 5.77 6.65 5.77c2.62 0 4.88-1.06 5.97-2.99"/></g><g id="Group_840"><path id="Path_2194" class="cls-1" d="M18.27 35.29c-9.35-.06-16.89-7.68-16.83-17.03C1.38 8.9 8.92 1.28 18.27 1.22c9.35.06 16.89 7.68 16.83 17.03.05 9.35-7.48 16.97-16.83 17.03m0-35.28C8.18 0 0 8.17 0 18.25 0 28.34 8.18 36.51 18.27 36.5c10.08 0 18.26-8.17 18.27-18.25C36.53 8.17 28.35 0 18.27 0"/></g><g id="Group_841"><path id="Path_2195" class="cls-1" d="M25.43 17.92a3.755 3.755 0 002.51-3.64c0-2.73-2.62-4.09-4.88-4.09h-3.2c-.23 0-.42.19-.42.42v.38c0 .23.19.42.42.42h2.97c1.8 0 3.59 1.02 3.59 3.01 0 2.09-1.67 3.08-3.59 3.08h-12.2v-6.09h6.24c.23 0 .42-.19.42-.42v-.38a.43.43 0 00-.42-.42H9.61c-.23 0-.42.19-.42.42v15.23c0 .23.19.42.42.42h7.26c.23 0 .42-.19.42-.42v-.38c0-.23-.19-.42-.42-.42h-6.24v-6.33H23.1c2.31 0 4.34.89 4.34 3.13 0 2.48-1.81 3.2-3.84 3.2h-3.74c-.23 0-.42.19-.42.42v.38c0 .23.19.42.42.42h3.97c2.33 0 5.18-1.21 5.18-4.32 0-2.14-1.81-3.56-3.58-4.01"/></g></g></g></svg>