<?xml version="1.0" encoding="utf-8"?>
<!-- Generator: Adobe Illustrator 25.2.1, SVG Export Plug-In . SVG Version: 6.00 Build 0)  -->
<!DOCTYPE svg PUBLIC "-//W3C//DTD SVG 1.1//EN" "http://www.w3.org/Graphics/SVG/1.1/DTD/svg11.dtd" [
	<!ENTITY st0 "fill:#FFFFFF;">
]>
<svg version="1.1" id="Capa_1" xmlns="http://www.w3.org/2000/svg" xmlns:xlink="http://www.w3.org/1999/xlink" x="0px" y="0px"
	 viewBox="0 0 1121 558.13" style="enable-background:new 0 0 1121 558.13;" xml:space="preserve">
<path style="&st0;" d="M602.47,208.37c11.48,0,22.16,3.45,32.48,6.79c9.49,3.07,18.43,5.96,27.14,5.96h1.82
	c8.72,0,17.65-2.89,27.12-5.95c10.36-3.34,21.03-6.79,32.51-6.79c9.16,0,17.68,1.46,24.09,2.99v-37.63
	c-4.96-1.55-14.19-3.95-24.09-3.95c-7.58,0-15.97,2.71-24.85,5.57c-10.96,3.54-22.19,7.17-34.79,7.17h-1.81
	c-12.6,0-23.84-3.63-34.71-7.15c-8.97-2.89-17.35-5.6-24.91-5.6c-9.9,0-19.13,2.39-24.09,3.95v37.63
	C584.79,209.83,593.31,208.37,602.47,208.37z"/>
<path style="&st0;" d="M602.47,376.79c11.48,0,22.16,3.45,32.48,6.79c9.49,3.07,18.43,5.96,27.14,5.96h1.82
	c8.72,0,17.65-2.89,27.12-5.95c10.36-3.34,21.03-6.79,32.51-6.79c9.16,0,17.68,1.46,24.09,2.99v-37.63
	c-4.96-1.55-14.19-3.95-24.09-3.95c-7.58,0-15.97,2.71-24.85,5.57c-10.96,3.54-22.19,7.17-34.79,7.17h-1.81
	c-12.6,0-23.84-3.63-34.71-7.15c-8.97-2.89-17.35-5.6-24.91-5.6c-9.9,0-19.13,2.39-24.09,3.95v37.63
	C584.79,378.25,593.31,376.79,602.47,376.79z"/>
<path style="&st0;" d="M602.47,292.58c11.48,0,22.16,3.45,32.48,6.79c9.49,3.07,18.43,5.96,27.14,5.96h1.82
	c8.72,0,17.65-2.89,27.12-5.95c10.36-3.34,21.03-6.79,32.51-6.79c9.16,0,17.68,1.46,24.09,2.99v-37.63
	c-4.96-1.55-14.19-3.95-24.09-3.95c-7.58,0-15.97,2.71-24.85,5.57c-10.96,3.54-22.19,7.17-34.79,7.17h-1.81
	c-12.6,0-23.84-3.63-34.71-7.15c-8.97-2.89-17.35-5.6-24.91-5.6c-9.9,0-19.13,2.39-24.09,3.95v37.63
	C584.79,294.04,593.31,292.58,602.47,292.58z"/>
<path style="&st0;" d="M784.96,353.02c1.84,1.86,4.11,4.1,6.96,6.89c2.6,2.53,5.9,5.18,9.78,7.88c9.62,6.62,20.17,11.99,31.35,15.94
	c21.01,7.41,45.66,7.74,67.63,0.9c10.35-3.22,19.44-7.78,27.02-13.58c7.38-5.66,13.28-12.6,17.5-20.63
	c4.17-7.91,6.28-16.92,6.28-26.77c0-9.25-1.65-17.09-4.91-23.3c-3.32-6.33-8.02-11.87-13.96-16.45
	c-6.33-4.88-14.04-9.21-22.91-12.85c-9.42-3.86-19.84-7.61-30.96-11.12c-6.07-1.89-11.41-3.66-16-5.3c-5.07-1.8-9.42-3.79-12.94-5.9
	c-4.09-2.43-7.32-5.26-9.58-8.42c-2.61-3.65-3.93-7.91-3.93-12.67c0-4.72,1.25-8.9,3.71-12.43c2.27-3.24,5.3-5.86,9.01-7.78
	c3.18-1.66,6.87-2.87,10.94-3.62c6.13-1.11,15.37-1.86,24.67,0.84c3.86,1.13,7.59,2.58,11.11,4.32c3.44,1.71,6.72,3.64,9.76,5.77
	c2.83,1.98,5.42,3.93,7.73,5.8l1.63,1.39c0.58,0.48,1.18,0.94,1.76,1.38l23.98-24.36c0.42-0.42,0.75-0.79,1.01-1.09
	c-1.02-1.22-2.44-2.58-4.22-4.05c-2.2-1.83-4.88-3.81-7.94-5.88c-3.06-2.06-6.36-4.09-9.81-6.02c-7.83-4.15-16-7.25-24.22-9.18
	c-8.29-1.94-17.08-2.92-26.12-2.92c-12.14,0-23.2,1.41-32.89,4.19c-9.49,2.73-17.63,6.58-24.17,11.44
	c-6.35,4.7-11.29,10.41-14.69,16.98c-3.38,6.53-5.09,13.96-5.09,22.09c0,7.82,1.39,14.93,4.11,21.12
	c2.75,6.25,6.97,12.08,12.54,17.35c5.85,5.52,13.32,10.63,22.19,15.19c9.29,4.77,20.31,9.3,32.74,13.44
	c2.89,0.93,6.42,2.1,10.51,3.53c4.38,1.52,8.7,3.41,12.85,5.6c4.49,2.41,8.36,5.21,11.52,8.35c4.23,4.21,6.46,9.36,6.46,14.91
	c0,3.86-0.64,7.61-1.89,11.15c-1.42,3.97-3.79,7.49-7.07,10.46c-3.17,2.87-7.31,5.13-12.31,6.71c-4.64,1.48-10.28,2.23-16.76,2.23
	c-7.05,0-13.88-1.19-20.31-3.53c-6-2.17-12.14-5.23-18.23-9.1c-4.08-2.64-7.71-5.31-10.83-7.95c-2.75-2.33-5.02-4.2-6.79-5.59
	c-0.46-0.37-0.87-0.7-1.24-0.98L783.5,351.5c0.14,0.13,0.28,0.28,0.42,0.43C784.12,352.05,784.54,352.49,784.96,353.02z
	 M942.52,196.68c-0.01,0.01-0.01,0.01-0.02,0.02C942.5,196.69,942.51,196.68,942.52,196.68z"/>
<path style="&st0;" d="M233.05,389.65h42.42V205.64h63.54v-36.01H169.51v36.01h63.54V389.65z"/>
<path style="&st0;" d="M479.62,272.5c3.92-2.37,7.25-5.37,9.91-8.9c2.62-3.47,4.64-7.38,5.99-11.61c1.33-4.17,2.01-8.51,2.01-12.9
	c0-4.26-0.76-8.57-2.27-12.81c-1.48-4.13-3.6-7.98-6.29-11.43c-2.75-3.5-6.07-6.49-9.89-8.87c-4.04-2.51-8.49-4.1-13.81-4.87
	c-2.96-0.22-5.73-0.41-8.31-0.57c-2.73-0.17-5.71-0.25-8.94-0.25H417.3l-0.01,189.37l-42.42-0.01l0.03-220.01h98.96
	c9.46,0,18.41,1.83,26.63,5.44c8.3,3.64,15.64,8.63,21.79,14.85c6.14,6.2,11.05,13.58,14.58,21.92c3.51,8.26,5.28,17.22,5.28,26.61
	c0,6.34-0.84,12.44-2.51,18.15c-1.7,5.79-4.1,11.27-7.12,16.29c-3.02,5.03-6.67,9.65-10.84,13.75c-4.2,4.11-8.85,7.69-13.84,10.62
	c0,0-2.55,1.68-12.26,6.15l46.94,86.13h-42.41l-58.81-111.39C445.58,278.26,467.22,279.66,479.62,272.5z"/>
</svg>
